<?xml version="1.0" standalone="no"?>
<!DOCTYPE svg PUBLIC "-//W3C//DTD SVG 20010904//EN"
 "http://www.w3.org/TR/2001/REC-SVG-20010904/DTD/svg10.dtd">
<svg version="1.0" xmlns="http://www.w3.org/2000/svg"
 width="700.000000pt" height="700.000000pt" viewBox="0 0 700.000000 700.000000"
 preserveAspectRatio="xMidYMid meet">
<metadata>
Created by potrace 1.14, written by Peter Selinger 2001-2017
</metadata>
<g transform="translate(0.000000,700.000000) scale(0.100000,-0.100000)"
fill="#000000" stroke="none">
<path d="M5134 5612 c-103 -207 -117 -217 -319 -216 -77 0 -190 3 -252 7 -303
17 -540 22 -1123 22 -634 0 -851 -5 -1215 -30 -196 -14 -208 -13 -246 6 -41
21 -71 62 -131 181 l-43 88 -62 -30 c-72 -34 -73 -17 4 -173 92 -186 98 -210
98 -382 0 -82 -3 -164 -7 -182 l-7 -32 47 4 c88 7 197 15 302 20 58 3 137 8
175 10 458 25 1504 25 2120 0 61 -3 164 -7 230 -10 122 -5 291 -14 378 -20 26
-1 50 1 53 6 3 6 5 93 4 194 0 107 4 202 10 226 6 22 36 93 67 157 31 64 62
129 69 143 11 25 10 27 -51 57 l-63 31 -38 -77z"/>
<path d="M1839 4567 c-20 -92 -17 -301 5 -402 2 -11 5 -26 5 -32 1 -10 54 -11
234 -7 127 4 277 7 332 8 l100 1 0 -1398 0 -1398 95 7 c116 8 296 8 407 -1
l83 -6 1 103 c0 57 2 245 4 418 2 173 6 592 10 930 6 535 12 1096 14 1298 l1
62 368 0 367 0 1 -238 c2 -264 14 -1422 19 -1862 2 -157 4 -381 4 -498 l1
-214 98 7 c87 6 234 7 422 2 l65 -2 0 1395 1 1395 79 -1 c44 -1 193 -4 331 -8
l252 -6 6 23 c27 96 27 425 -1 470 -3 5 -82 6 -177 3 -94 -3 -274 -9 -401 -13
-295 -10 -1791 -10 -2082 0 -123 4 -312 10 -420 13 -109 3 -201 8 -204 10 -4
2 -12 -24 -20 -59z"/>
</g>
</svg>
